<svg width="16" height="17" viewBox="0 0 16 17" fill="none" xmlns="http://www.w3.org/2000/svg">
<path d="M3.51562 16.5V5.98828H0.24609V16.5H3.51562ZM1.86328 4.58203C2.91797 4.58203 3.76172 3.70312 3.76172 2.64844C3.76172 1.62891 2.91797 0.785156 1.86328 0.785156C0.84375 0.785156 0 1.62891 0 2.64844C0 3.70312 0.84375 4.58203 1.86328 4.58203ZM15.7148 16.5H15.75V10.7344C15.75 7.92188 15.1172 5.74219 11.8125 5.74219C10.2305 5.74219 9.1758 6.62109 8.7188 7.42969H8.6836V5.98828H5.55469V16.5H8.8242V11.2969C8.8242 9.9258 9.0703 8.625 10.7578 8.625C12.4453 8.625 12.4805 10.1719 12.4805 11.4023V16.5H15.7148Z" fill="black"/>
</svg>
