<svg width="21" height="14" viewBox="0 0 21 14" fill="none" xmlns="http://www.w3.org/2000/svg">
<path d="M19.8008 2.14453C19.5898 1.30078 18.9219 0.63281 18.1133 0.42188C16.6016 -2.38419e-07 10.625 0 10.625 0C10.625 0 4.61328 -2.38419e-07 3.10156 0.42188C2.29297 0.63281 1.625 1.30078 1.41406 2.14453C0.992188 3.62109 0.992188 6.7852 0.992188 6.7852C0.992188 6.7852 0.992188 9.9141 1.41406 11.4258C1.625 12.2695 2.29297 12.9023 3.10156 13.1133C4.61328 13.5 10.625 13.5 10.625 13.5C10.625 13.5 16.6016 13.5 18.1133 13.1133C18.9219 12.9023 19.5898 12.2695 19.8008 11.4258C20.2227 9.9141 20.2227 6.7852 20.2227 6.7852C20.2227 6.7852 20.2227 3.62109 19.8008 2.14453ZM8.65625 9.6328V3.9375L13.6484 6.7852L8.65625 9.6328Z" fill="black"/>
</svg>
